<svg xmlns="http://www.w3.org/2000/svg" viewBox="0 0 64 64" fill="none" role="img" aria-hidden="true">
  <defs>
    <linearGradient id="cm-mark-leaf" x1="18" y1="12" x2="48" y2="52" gradientUnits="userSpaceOnUse">
      <stop offset="0%" stop-color="#7dffa8"/>
      <stop offset="55%" stop-color="#2dd4a8"/>
      <stop offset="100%" stop-color="#0f766e"/>
    </linearGradient>
  </defs>
  <g transform="translate(32 33) rotate(-38) translate(-32 -33)">
    <path
      fill="url(#cm-mark-leaf)"
      d="M32 10c11 7 18 18 18 31 0 4-1.2 7.2-3.2 9.2-2.4 2.4-5.8 2.6-8.8.8L32 46.5l-6 4.5c-3 1.8-6.4 1.6-8.8-.8C15.2 48.2 14 45 14 41 14 28 21 17 32 10z"
    />
    <path
      fill="none"
      stroke="#063042"
      stroke-width="1.8"
      stroke-linecap="round"
      stroke-linejoin="round"
      d="M32 18v24M32 28l-7-4M32 34l-8 1M32 40l-6 4M32 26l7-2M32 33l8 0.5M32 39l7 3"
    />
    <circle cx="25" cy="24" r="1.5" fill="#e8fff4"/>
    <circle cx="24" cy="35" r="1.5" fill="#e8fff4"/>
    <circle cx="26" cy="44" r="1.5" fill="#e8fff4"/>
    <circle cx="39" cy="24" r="1.5" fill="#e8fff4"/>
    <circle cx="40" cy="33.5" r="1.5" fill="#e8fff4"/>
    <circle cx="39" cy="42" r="1.5" fill="#e8fff4"/>
  </g>
</svg>
